<?xml version="1.0" standalone="no"?>
<!DOCTYPE svg PUBLIC "-//W3C//DTD SVG 20010904//EN"
 "http://www.w3.org/TR/2001/REC-SVG-20010904/DTD/svg10.dtd">
<svg version="1.0" xmlns="http://www.w3.org/2000/svg"
 width="400.000000pt" height="100.000000pt" viewBox="0 0 400.000000 100.000000"
 preserveAspectRatio="xMidYMid meet">

<g transform="translate(0.000000,100.000000) scale(0.100000,-0.100000)"
fill="#000000" stroke="none">
<path d="M55 588 c-3 -57 -5 -137 -3 -178 l3 -75 33 -3 c25 -3 32 0 32 15 0
11 3 14 8 7 34 -51 133 -38 160 21 18 38 15 132 -5 165 -30 52 -92 65 -137 29
l-26 -20 0 70 0 71 -29 0 -29 0 -7 -102z m166 -75 c18 -21 18 -95 0 -116 -17
-22 -59 -22 -83 0 -22 20 -24 80 -2 111 18 26 65 30 85 5z"/>
<path d="M364 676 c-3 -8 -4 -82 -2 -164 3 -131 5 -153 22 -171 20 -22 70 -29
81 -11 10 16 -5 50 -21 50 -11 0 -14 27 -14 155 l0 155 -30 0 c-17 0 -33 -6
-36 -14z"/>
<path d="M1050 511 c0 -162 2 -179 18 -183 41 -10 52 1 52 55 l1 52 27 -34
c15 -19 34 -43 42 -53 16 -20 66 -33 74 -20 3 5 -15 37 -39 70 -25 34 -45 64
-45 67 0 3 19 29 41 58 l42 52 -34 3 c-26 3 -37 -2 -51 -21 -10 -14 -27 -36
-38 -49 l-19 -23 -1 103 0 102 -35 0 -35 0 0 -179z"/>
<path d="M1512 674 c-13 -9 -24 -30 -28 -55 -4 -23 -12 -39 -20 -39 -8 0 -14
-10 -14 -25 0 -18 5 -25 20 -25 19 0 20 -7 20 -103 l0 -103 28 2 27 1 3 101 3
101 37 3 c30 2 38 7 40 26 3 20 -1 22 -38 22 -39 0 -41 1 -38 28 3 24 7 27 40
26 29 -1 38 3 42 19 3 11 3 24 0 29 -9 14 -98 9 -122 -8z"/>
<path d="M3050 525 c0 -152 2 -167 20 -185 11 -11 33 -20 50 -20 26 0 30 3 30
29 0 20 -6 30 -20 34 -19 5 -20 14 -20 156 l0 151 -30 0 -30 0 0 -165z"/>
<path d="M3470 511 c0 -165 2 -181 18 -182 28 -2 47 2 50 12 2 5 13 2 25 -6
52 -36 125 -5 147 61 16 47 7 119 -17 153 -27 36 -81 49 -121 28 l-31 -15 -3
61 c-3 62 -3 62 -35 65 l-33 3 0 -180z m170 0 c5 -11 10 -36 10 -56 0 -54 -15
-75 -53 -75 -44 0 -57 15 -57 68 0 62 14 82 55 82 24 0 38 -6 45 -19z"/>
<path d="M2690 610 c0 -23 -4 -30 -20 -30 -15 0 -20 -7 -20 -25 0 -18 5 -25
20 -25 18 0 20 -7 20 -80 0 -73 3 -83 25 -105 42 -43 124 -30 112 18 -6 20
-11 23 -33 19 -35 -6 -44 10 -44 86 l0 62 40 0 c36 0 40 3 40 24 0 21 -5 25
-37 28 -33 3 -38 7 -41 31 -3 23 -8 27 -33 27 -26 0 -29 -3 -29 -30z"/>
<path d="M552 575 c-38 -16 -49 -39 -32 -60 11 -14 15 -14 29 -1 26 24 64 29
86 11 19 -14 19 -16 2 -29 -10 -8 -35 -17 -55 -21 -61 -11 -82 -30 -82 -73 0
-51 18 -72 67 -79 32 -4 45 -1 60 14 19 19 20 19 43 1 33 -27 64 -20 68 15 2
19 -1 27 -12 27 -13 0 -16 13 -16 68 0 89 -7 110 -41 127 -35 19 -74 18 -117
0z m98 -143 c0 -48 -71 -86 -87 -46 -12 32 14 53 80 63 4 0 7 -7 7 -17z"/>
<path d="M843 575 c-109 -47 -88 -233 30 -252 46 -7 82 2 107 27 26 26 25 46
-1 61 -17 9 -23 7 -36 -10 -17 -25 -65 -28 -87 -5 -23 22 -21 96 2 117 23 21
65 22 82 2 15 -18 20 -18 43 -1 25 19 8 50 -34 65 -41 14 -67 13 -106 -4z"/>
<path d="M1713 574 c-85 -42 -84 -204 2 -240 67 -27 142 -7 169 45 21 40 20
116 -1 152 -32 54 -108 73 -170 43z m107 -60 c8 -8 13 -35 13 -59 0 -24 -5
-51 -13 -59 -15 -19 -71 -21 -88 -4 -15 15 -16 92 -2 119 13 24 72 26 90 3z"/>
<path d="M2070 583 c-8 -3 -21 -12 -27 -21 -12 -14 -13 -14 -13 1 0 13 -9 17
-35 17 l-36 0 3 -127 3 -127 30 0 30 0 3 87 c3 79 5 88 27 103 13 8 32 14 42
12 22 -4 32 40 11 53 -14 10 -17 10 -38 2z"/>
<path d="M2213 575 c-41 -17 -65 -65 -65 -127 0 -56 19 -91 64 -114 42 -22
111 -14 144 17 l25 24 -22 18 c-20 16 -24 16 -39 2 -25 -23 -76 -19 -94 7 -9
12 -16 26 -16 30 0 5 38 8 85 8 l85 0 0 34 c0 55 -17 86 -55 101 -42 18 -71
18 -112 0z m91 -51 c31 -31 20 -44 -39 -44 -59 0 -67 8 -35 40 24 24 53 26 74
4z"/>
<path d="M2480 583 c-34 -13 -50 -37 -50 -75 0 -33 5 -41 33 -58 17 -11 41
-20 53 -20 11 0 25 -5 32 -12 37 -37 -22 -63 -68 -30 -27 20 -29 20 -44 3 -24
-26 -20 -37 20 -56 46 -22 118 -16 146 12 30 30 27 81 -6 110 -15 12 -36 23
-47 23 -29 0 -59 18 -59 36 0 21 25 28 62 15 26 -9 35 -9 47 4 14 13 14 17 -1
31 -17 17 -92 28 -118 17z"/>
<path d="M3234 576 c-40 -18 -48 -30 -35 -55 10 -18 11 -18 50 1 42 20 81 17
81 -6 0 -20 -20 -33 -64 -40 -77 -14 -110 -83 -61 -131 30 -31 73 -32 109 -4
14 11 26 16 26 10 0 -17 40 -33 66 -27 30 8 32 41 4 56 -17 9 -20 21 -20 89 0
65 -3 81 -20 96 -25 23 -97 29 -136 11z m96 -155 c0 -56 -72 -73 -78 -19 -3
23 2 29 30 37 48 14 48 14 48 -18z"/>
<path d="M3820 583 c-34 -12 -50 -37 -50 -74 0 -44 18 -60 88 -79 31 -8 42
-16 42 -30 0 -31 -45 -37 -80 -12 -28 21 -28 21 -46 1 -17 -19 -17 -20 3 -41
26 -26 107 -35 143 -16 38 20 55 62 40 99 -7 16 -13 29 -14 29 -45 10 -112 41
-114 53 -4 22 39 32 68 17 19 -10 26 -9 42 8 19 19 19 19 -15 36 -35 16 -78
20 -107 9z"/>
<path d="M1280 490 l0 -30 70 0 70 0 0 30 0 30 -70 0 -70 0 0 -30z"/>
<path d="M2850 490 l0 -30 70 0 70 0 0 30 0 30 -70 0 -70 0 0 -30z"/>
</g>
</svg>
